<svg width="1295" height="1251" viewBox="0 0 1295 1251" fill="none" xmlns="http://www.w3.org/2000/svg">
<path d="M865.189 74.9893C908.82 74.9893 944.189 110.359 944.189 153.989V417.479C944.189 461.109 908.82 496.479 865.189 496.479H446.552C402.921 496.479 367.552 461.109 367.552 417.479V153.989C367.552 110.359 402.921 74.9893 446.552 74.9893H865.189ZM528.086 129.291C506.547 129.291 489.086 146.752 489.086 168.291V352.832C489.086 396.463 524.455 431.832 568.086 431.832H817.352C860.983 431.832 896.352 396.462 896.352 352.832V168.291C896.352 146.752 878.891 129.291 857.352 129.291H528.086Z" fill="white"/>
<rect x="539.509" y="480.963" width="243.067" height="121.534" fill="white"/>
<rect x="410.218" y="514.578" width="102.14" height="143.513" rx="17" fill="white"/>
<rect x="794.212" y="514.578" width="149.978" height="94.3825" rx="17" fill="white"/>
<rect x="608.033" width="104.726" height="94.3825" rx="17" fill="white"/>
<rect x="539.509" y="586.981" width="104.726" height="106.019" rx="17" fill="white"/>
<rect x="677.85" y="586.981" width="104.726" height="106.019" rx="17" fill="white"/>
<rect x="617.083" y="188.765" width="76.2817" height="143.513" rx="17" fill="white"/>
<rect x="755.425" y="188.765" width="76.2817" height="143.513" rx="17" fill="white"/>
<path d="M583.508 1125H431.858C426.158 1125 421.958 1123.8 419.258 1121.4C416.858 1118.7 415.658 1114.5 415.658 1108.8V817.2C415.658 811.5 416.858 807.45 419.258 805.05C421.958 802.35 426.158 801 431.858 801H583.508C621.008 801 648.758 808.5 666.758 823.5C685.058 838.5 694.208 861.6 694.208 892.8V1033.2C694.208 1064.4 685.058 1087.5 666.758 1102.5C648.758 1117.5 621.008 1125 583.508 1125ZM517.808 886.95V1039.95H571.358C578.558 1039.95 583.808 1038.15 587.108 1034.55C590.708 1030.95 592.508 1025.4 592.508 1017.9V908.55C592.508 901.05 590.708 895.65 587.108 892.35C583.808 888.75 578.558 886.95 571.358 886.95H517.808ZM949.4 1125H740.6C734.9 1125 730.7 1123.8 728 1121.4C725.6 1118.7 724.4 1114.5 724.4 1108.8V817.2C724.4 811.5 725.6 807.45 728 805.05C730.7 802.35 734.9 801 740.6 801H949.4C955.1 801 959.15 802.35 961.55 805.05C964.25 807.45 965.6 811.5 965.6 817.2V869.85C965.6 875.55 964.25 879.75 961.55 882.45C959.15 884.85 955.1 886.05 949.4 886.05H825.2V920.7H912.95C918.65 920.7 922.7 922.05 925.1 924.75C927.8 927.15 929.15 931.2 929.15 936.9V985.05C929.15 990.75 927.8 994.95 925.1 997.65C922.7 1000.05 918.65 1001.25 912.95 1001.25H825.2V1039.95H949.4C955.1 1039.95 959.15 1041.3 961.55 1044C964.25 1046.4 965.6 1050.45 965.6 1056.15V1108.8C965.6 1114.5 964.25 1118.7 961.55 1121.4C959.15 1123.8 955.1 1125 949.4 1125ZM1183.53 1125H1066.53C1060.83 1125 1056.03 1123.95 1052.13 1121.85C1048.53 1119.75 1045.68 1115.85 1043.58 1110.15L999.484 999.9C996.784 993.3 994.534 987.6 992.734 982.8C990.934 977.7 989.434 972.9 988.234 968.4C987.034 963.9 986.134 959.25 985.534 954.45C985.234 949.35 985.084 943.2 985.084 936V817.2C985.084 811.5 986.284 807.45 988.684 805.05C991.384 802.35 995.584 801 1001.28 801H1072.83C1078.53 801 1082.88 802.35 1085.88 805.05C1088.88 807.45 1090.38 811.5 1090.38 817.2V941.4C1090.38 944.4 1090.68 947.4 1091.28 950.4C1091.88 953.4 1092.78 956.55 1093.98 959.85L1115.13 1022.85C1116.03 1025.85 1117.08 1027.95 1118.28 1029.15C1119.48 1030.05 1121.28 1030.5 1123.68 1030.5H1128.63C1131.03 1030.5 1132.83 1030.05 1134.03 1029.15C1135.23 1027.95 1136.28 1025.85 1137.18 1022.85L1158.33 959.4C1159.53 956.1 1160.43 952.95 1161.03 949.95C1161.63 946.95 1161.93 943.95 1161.93 940.95V817.2C1161.93 811.5 1163.13 807.45 1165.53 805.05C1168.23 802.35 1172.43 801 1178.13 801H1248.78C1254.48 801 1258.53 802.35 1260.93 805.05C1263.63 807.45 1264.98 811.5 1264.98 817.2V936C1264.98 943.2 1264.68 949.35 1264.08 954.45C1263.78 959.25 1263.03 963.9 1261.83 968.4C1260.63 972.9 1259.13 977.7 1257.33 982.8C1255.53 987.6 1253.28 993.3 1250.58 999.9L1206.48 1110.15C1204.38 1115.85 1201.38 1119.75 1197.48 1121.85C1193.88 1123.95 1189.23 1125 1183.53 1125Z" fill="white"/>
<path d="M1048.48 1237H987.405C985.885 1237 984.765 1236.68 984.045 1236.04C983.405 1235.32 983.085 1234.2 983.085 1232.68V1154.92C983.085 1153.4 983.405 1152.32 984.045 1151.68C984.765 1150.96 985.885 1150.6 987.405 1150.6H1006C1007.52 1150.6 1008.6 1150.96 1009.24 1151.68C1009.96 1152.32 1010.32 1153.4 1010.32 1154.92V1214.32H1026.76V1194.88C1026.76 1193.36 1027.08 1192.28 1027.72 1191.64C1028.44 1190.92 1029.56 1190.56 1031.08 1190.56H1048.48C1050 1190.56 1051.08 1190.92 1051.72 1191.64C1052.44 1192.28 1052.8 1193.36 1052.8 1194.88V1232.68C1052.8 1234.2 1052.44 1235.32 1051.72 1236.04C1051.08 1236.68 1050 1237 1048.48 1237ZM996.165 1226.2H1040.32V1201.36H1039.12V1225H997.365V1161.4H996.165V1226.2ZM1071.44 1200.64C1071.44 1198.48 1071.6 1196.48 1071.92 1194.64C1072.32 1192.8 1072.8 1191.08 1073.36 1189.48L1081.04 1169.8C1081.84 1167.8 1082.72 1166.12 1083.68 1164.76C1084.64 1163.32 1086.32 1162.6 1088.72 1162.6H1100.48C1102.72 1162.6 1104.32 1163.32 1105.28 1164.76C1106.24 1166.12 1107.16 1167.84 1108.04 1169.92L1116.32 1189.48C1116.88 1191.08 1117.32 1192.8 1117.64 1194.64C1118.04 1196.48 1118.24 1198.48 1118.24 1200.64V1204.36H1071.44V1200.64ZM1090.64 1175.8L1085 1194.04H1103.84L1098.2 1175.8C1097.88 1175.08 1097.52 1174.56 1097.12 1174.24C1096.8 1173.92 1096.4 1173.76 1095.92 1173.76H1092.92C1092.44 1173.76 1092 1173.92 1091.6 1174.24C1091.28 1174.56 1090.96 1175.08 1090.64 1175.8ZM1118.24 1226.2H1119.44V1200.64C1119.44 1198.4 1119.24 1196.36 1118.84 1194.52C1118.52 1192.6 1118.04 1190.76 1117.4 1189L1109.12 1169.44C1108.16 1167.12 1107.12 1165.2 1106 1163.68C1104.96 1162.16 1103.12 1161.4 1100.48 1161.4H1088.72C1086 1161.4 1084.08 1162.16 1082.96 1163.68C1081.84 1165.2 1080.84 1167.08 1079.96 1169.32L1072.28 1189C1071.64 1190.76 1071.12 1192.6 1070.72 1194.52C1070.4 1196.36 1070.24 1198.4 1070.24 1200.64V1226.2H1071.44V1205.56H1118.24V1226.2ZM1083.8 1232.68C1083.8 1234.2 1083.44 1235.32 1082.72 1236.04C1082.08 1236.68 1081 1237 1079.48 1237H1061.84C1060.32 1237 1059.2 1236.68 1058.48 1236.04C1057.84 1235.32 1057.52 1234.2 1057.52 1232.68V1201C1057.52 1198.6 1057.88 1195.84 1058.6 1192.72C1059.4 1189.6 1060.6 1185.96 1062.2 1181.8L1072.64 1154.56C1073.12 1153.2 1073.84 1152.2 1074.8 1151.56C1075.84 1150.92 1077.16 1150.6 1078.76 1150.6H1111.04C1112.56 1150.6 1113.8 1150.92 1114.76 1151.56C1115.8 1152.2 1116.56 1153.2 1117.04 1154.56L1127.48 1181.8C1129.08 1185.96 1130.24 1189.6 1130.96 1192.72C1131.76 1195.84 1132.16 1198.6 1132.16 1201V1232.68C1132.16 1234.2 1131.8 1235.32 1131.08 1236.04C1130.44 1236.68 1129.36 1237 1127.84 1237H1109.72C1108.12 1237 1106.92 1236.68 1106.12 1236.04C1105.4 1235.32 1105.04 1234.2 1105.04 1232.68V1215.88H1083.8V1232.68ZM1190.18 1237H1144.1C1142.58 1237 1141.46 1236.68 1140.74 1236.04C1140.1 1235.32 1139.78 1234.2 1139.78 1232.68V1154.92C1139.78 1153.4 1140.1 1152.32 1140.74 1151.68C1141.46 1150.96 1142.58 1150.6 1144.1 1150.6H1182.38C1190.22 1150.6 1196.02 1152.12 1199.78 1155.16C1203.54 1158.12 1205.42 1162.72 1205.42 1168.96V1174.72C1205.42 1178.08 1204.82 1180.84 1203.62 1183C1202.5 1185.08 1200.74 1186.64 1198.34 1187.68C1203.46 1188.16 1207.26 1189.92 1209.74 1192.96C1212.22 1196 1213.46 1200.44 1213.46 1206.28V1217.32C1213.46 1224.04 1211.54 1229 1207.7 1232.2C1203.94 1235.4 1198.1 1237 1190.18 1237ZM1153.1 1226.2H1185.38C1188.74 1226.2 1191.46 1225.92 1193.54 1225.36C1195.62 1224.72 1197.18 1223.88 1198.22 1222.84C1199.34 1221.8 1200.1 1220.56 1200.5 1219.12C1200.9 1217.6 1201.1 1215.96 1201.1 1214.2V1206.52C1201.1 1204.52 1200.9 1202.68 1200.5 1201C1200.18 1199.32 1199.46 1197.88 1198.34 1196.68C1197.22 1195.4 1195.62 1194.44 1193.54 1193.8C1191.46 1193.08 1188.78 1192.72 1185.5 1192.72C1188.94 1191.84 1191.06 1190.4 1191.86 1188.4C1192.74 1186.4 1193.18 1184.2 1193.18 1181.8V1174.12C1193.18 1172.36 1192.98 1170.72 1192.58 1169.2C1192.18 1167.68 1191.42 1166.36 1190.3 1165.24C1189.18 1164.04 1187.58 1163.12 1185.5 1162.48C1183.42 1161.76 1180.74 1161.4 1177.46 1161.4H1153.1V1226.2ZM1177.46 1162.6C1183.46 1162.6 1187.38 1163.72 1189.22 1165.96C1191.06 1168.2 1191.98 1170.92 1191.98 1174.12V1181.8C1191.98 1183.24 1191.82 1184.64 1191.5 1186C1191.26 1187.28 1190.62 1188.44 1189.58 1189.48C1188.62 1190.44 1187.18 1191.24 1185.26 1191.88C1183.34 1192.44 1180.74 1192.72 1177.46 1192.72H1154.3V1162.6H1177.46ZM1166.78 1171V1183.96H1176.98C1178.5 1183.96 1179.62 1183.56 1180.34 1182.76C1181.14 1181.96 1181.54 1180.76 1181.54 1179.16V1175.8C1181.54 1174.2 1181.14 1173 1180.34 1172.2C1179.62 1171.4 1178.5 1171 1176.98 1171H1166.78ZM1185.5 1193.92C1191.5 1193.92 1195.38 1195.12 1197.14 1197.52C1198.98 1199.92 1199.9 1202.92 1199.9 1206.52V1214.2C1199.9 1217.48 1198.98 1220.12 1197.14 1222.12C1195.3 1224.04 1191.38 1225 1185.38 1225H1154.3V1193.92H1185.5ZM1166.78 1202.44V1216.6H1182.38C1183.9 1216.6 1185.02 1216.2 1185.74 1215.4C1186.54 1214.6 1186.94 1213.4 1186.94 1211.8V1207.12C1186.94 1205.52 1186.54 1204.36 1185.74 1203.64C1185.02 1202.84 1183.9 1202.44 1182.38 1202.44H1166.78ZM1259.61 1237H1221.69C1220.17 1237 1219.05 1236.68 1218.33 1236.04C1217.69 1235.32 1217.37 1234.2 1217.37 1232.68V1218.64C1217.37 1217.12 1217.69 1216.04 1218.33 1215.4C1219.05 1214.68 1220.17 1214.32 1221.69 1214.32H1253.97C1255.01 1214.32 1255.77 1214 1256.25 1213.36C1256.81 1212.64 1257.09 1211.8 1257.09 1210.84C1257.09 1209.48 1256.81 1208.48 1256.25 1207.84C1255.77 1207.2 1255.01 1206.84 1253.97 1206.76L1235.97 1204.24C1230.37 1203.44 1225.85 1201.6 1222.41 1198.72C1219.05 1195.84 1217.37 1191.04 1217.37 1184.32V1171.72C1217.37 1164.92 1219.57 1159.72 1223.97 1156.12C1228.37 1152.44 1234.45 1150.6 1242.21 1150.6H1275.81C1277.33 1150.6 1278.41 1150.96 1279.05 1151.68C1279.77 1152.32 1280.13 1153.4 1280.13 1154.92V1169.2C1280.13 1170.72 1279.77 1171.84 1279.05 1172.56C1278.41 1173.2 1277.33 1173.52 1275.81 1173.52H1247.85C1246.81 1173.52 1246.01 1173.88 1245.45 1174.6C1244.89 1175.24 1244.61 1176.08 1244.61 1177.12C1244.61 1178.16 1244.89 1179.04 1245.45 1179.76C1246.01 1180.48 1246.81 1180.88 1247.85 1180.96L1265.73 1183.36C1271.33 1184.16 1275.85 1186 1279.29 1188.88C1282.73 1191.76 1284.45 1196.56 1284.45 1203.28V1215.88C1284.45 1222.68 1282.21 1227.92 1277.73 1231.6C1273.33 1235.2 1267.29 1237 1259.61 1237ZM1269.33 1161.4H1242.69C1239.01 1161.4 1236.05 1162.44 1233.81 1164.52C1231.57 1166.52 1230.45 1169.12 1230.45 1172.32V1182.16C1230.45 1185.44 1231.09 1187.72 1232.37 1189C1233.73 1190.2 1235.45 1191 1237.53 1191.4L1262.85 1196.56C1265.09 1197.04 1266.85 1198 1268.13 1199.44C1269.49 1200.8 1270.17 1203.36 1270.17 1207.12V1214.08C1270.17 1217.28 1269.05 1219.92 1266.81 1222C1264.65 1224 1261.73 1225 1258.05 1225H1228.17V1226.2H1258.05C1262.13 1226.2 1265.37 1225.08 1267.77 1222.84C1270.17 1220.52 1271.37 1217.6 1271.37 1214.08V1207.12C1271.37 1202.96 1270.57 1200.08 1268.97 1198.48C1267.45 1196.88 1265.49 1195.84 1263.09 1195.36L1237.77 1190.2C1235.93 1189.88 1234.45 1189.16 1233.33 1188.04C1232.21 1186.92 1231.65 1184.96 1231.65 1182.16V1172.32C1231.65 1169.52 1232.65 1167.2 1234.65 1165.36C1236.65 1163.52 1239.33 1162.6 1242.69 1162.6H1269.33V1161.4Z" fill="white"/>
<path d="M25.2 1100.7H200.9C212.1 1100.7 219.333 1098.6 222.6 1094.4C225.867 1090.2 227.5 1085.3 227.5 1079.7V1060.8C227.5 1055.2 225.867 1050.53 222.6 1046.8C219.333 1042.6 212.1 1040.5 200.9 1040.5H81.9C73.0333 1040.5 66.5 1038.63 62.3 1034.9C58.5666 1030.7 56.7 1024.17 56.7 1015.3V940.4C56.7 931.533 58.5666 925.233 62.3 921.5C66.5 917.3 73.0333 915.2 81.9 915.2H155.4C166.6 915.2 173.833 913.1 177.1 908.9C180.367 904.7 182 899.8 182 894.2V883.7C182 878.1 180.367 873.2 177.1 869C173.833 864.8 166.6 862.7 155.4 862.7H25.2C16.3333 862.7 9.79995 860.833 5.59995 857.1C1.86662 852.9 -4.71175e-05 846.367 -4.71175e-05 837.5V754.2C-4.71175e-05 745.333 1.86662 739.033 5.59995 735.3C9.79995 731.1 16.3333 729 25.2 729H220.5C259.233 729 287.933 738.1 306.6 756.3C325.733 774.033 335.3 798.3 335.3 829.1V869.7C335.3 887.433 332.267 902.833 326.2 915.9C320.133 928.967 309.4 938.767 294 945.3C327.133 949.033 350 959.3 362.6 976.1C375.667 992.433 382.2 1016 382.2 1046.8V1116.8C382.2 1152.73 370.767 1181.2 347.9 1202.2C325.033 1222.73 291.2 1233 246.4 1233H25.2C16.3333 1233 9.79995 1231.13 5.59995 1227.4C1.86662 1223.2 -4.71175e-05 1216.67 -4.71175e-05 1207.8V1125.9C-4.71175e-05 1117.03 1.86662 1110.73 5.59995 1107C9.79995 1102.8 16.3333 1100.7 25.2 1100.7ZM119.7 981.7H226.1C252.7 981.7 271.833 987.533 283.5 999.2C295.633 1010.87 301.7 1028.37 301.7 1051.7V1100C301.7 1119.13 296.333 1134.53 285.6 1146.2C274.867 1157.4 252 1163 217 1163H63V1170H217C236.6 1170 252.467 1168.37 264.6 1165.1C276.733 1161.37 285.833 1156.47 291.9 1150.4C298.433 1144.33 302.867 1137.1 305.2 1128.7C307.533 1119.83 308.7 1110.27 308.7 1100V1051.7C308.7 1027.43 302.4 1008.77 289.8 995.7C277.2 982.633 256.433 976.1 227.5 976.1H216.3C237.3 971.433 250.133 962.8 254.8 950.2C259.933 937.133 262.5 924.067 262.5 911V866.2C262.5 855.933 261.333 846.367 259 837.5C256.667 828.633 252.233 820.933 245.7 814.4C239.167 807.4 229.833 802.033 217.7 798.3C205.567 794.1 189.933 792 170.8 792H63V799H170.8C204.867 799 227.5 805.3 238.7 817.9C249.9 830.033 255.5 845.2 255.5 863.4V911C255.5 919.4 254.8 927.567 253.4 935.5C252 942.967 248.5 949.733 242.9 955.8C237.767 961.4 230.067 966.067 219.8 969.8C209.533 973.067 195.533 974.7 177.8 974.7H119.7V981.7Z" fill="white"/>
</svg>
